<?xml version="1.0" encoding="utf-8"?>
<!-- Generator: Adobe Illustrator 15.0.0, SVG Export Plug-In . SVG Version: 6.00 Build 0)  -->
<!DOCTYPE svg PUBLIC "-//W3C//DTD SVG 1.1//EN" "http://www.w3.org/Graphics/SVG/1.1/DTD/svg11.dtd">
<svg version="1.1" id="ottobock" xmlns="http://www.w3.org/2000/svg" xmlns:xlink="http://www.w3.org/1999/xlink" x="0px" y="0px"
	 width="192px" height="31px" viewBox="0 0 192 31" enable-background="new 0 0 192 31" xml:space="preserve">
<g>
	<ellipse fill="#053282" cx="187.553" cy="26.035" rx="4.449" ry="4.402"/>
	<polygon fill="#053282" points="158.073,0 158.073,30.27 164.508,30.27 164.508,23.318 167.339,20.616 173.087,30.27 
		180.723,30.27 172.017,15.855 179.738,7.875 171.801,7.875 164.55,15.554 164.55,0 	"/>
	<path fill="#053282" d="M155.554,12.637c-0.431-0.686-0.6-0.944-0.857-1.287c-3.004-3.776-6.949-4.119-8.71-4.119
		c-2.057,0-7.592,0.472-10.123,6.348c-1.072,2.49-1.116,4.634-1.116,5.665c0,4.46,1.672,8.452,5.877,10.509
		c2.275,1.116,4.246,1.247,5.235,1.247c1.63,0,5.448-0.387,8.408-3.863c0.558-0.644,1.072-1.414,1.545-2.145l-4.978-2.573
		c-0.259,0.729-0.429,0.987-0.644,1.33c-0.385,0.557-1.545,1.974-3.688,2.014c-1.458,0-2.404-0.729-2.831-1.072
		c-1.503-1.243-2.146-3.73-2.146-5.662c0-0.429,0.085-4.247,2.358-5.962c0.986-0.729,1.932-0.773,2.404-0.773
		c2.016,0,3.26,1.374,3.646,1.845c0.343,0.473,0.687,1.158,0.73,1.288L155.554,12.637z"/>
	<path fill="#053282" d="M120.198,7.198c-7.346,0-12.029,4.51-12.029,11.857c0,8.291,5.757,11.898,12.073,11.898
		c8.763,0,12.029-6.229,12.029-11.898C132.271,14.758,130.208,7.198,120.198,7.198L120.198,7.198z M120.283,12.396
		c3.995,0,5.285,3.652,5.285,6.7c0,3.524-1.763,6.619-5.326,6.619c-3.695,0-5.371-3.052-5.371-6.619
		C114.871,15.359,116.418,12.396,120.283,12.396z"/>
	<path fill="#053282" d="M83.44,0v30.27h6.336l-0.256-2.354c0.813,0.899,2.611,2.954,6.549,2.954c7.066,0,9.719-6.123,9.719-12.244
		c0-8.905-5.908-11.389-9.504-11.389c-3.81,0-5.479,1.712-6.421,2.697V0H83.44z M94.657,12.074c3.684,0,4.712,3.426,4.712,6.807
		c0,3.513-1.074,7.108-4.797,7.108c-3.983,0-4.881-3.725-4.881-7.108C89.691,16.57,90.119,12.074,94.657,12.074z"/>
	<path fill="#053282" d="M68.335,7.198c-7.345,0-12.028,4.51-12.028,11.857c0,8.291,5.756,11.898,12.072,11.898
		c8.764,0,12.028-6.229,12.028-11.898C80.407,14.758,78.345,7.198,68.335,7.198L68.335,7.198z M68.421,12.396
		c3.995,0,5.284,3.652,5.284,6.7c0,3.524-1.761,6.619-5.327,6.619c-3.695,0-5.37-3.052-5.37-6.619
		C63.009,15.359,64.555,12.396,68.421,12.396z"/>
	<path fill="#053282" d="M54.624,12.466V7.875h-4.385V1.396h-6.512v6.479h-8.462V1.396h-6.511v6.479h-3.26v4.591h3.26v10.733
		c0,2.143,0,3.769,0.943,5.055c1.243,1.756,3.513,2.226,5.697,2.226c1.414,0,2.87-0.212,3.941-0.385v-5.141
		c-2.398,0.086-1.584,0.086-2.441,0.086c-1.457,0-1.628-0.985-1.628-1.972V12.466h8.462v10.733c0,2.143,0,3.769,0.942,5.055
		c1.243,1.756,3.513,2.226,5.697,2.226c1.414,0,2.87-0.212,3.941-0.385v-5.141c-2.398,0.086-1.585,0.086-2.442,0.086
		c-1.457,0-1.627-0.985-1.627-1.972V12.466H54.624z"/>
	<path fill="#053282" d="M12.684,7.198c-7.346,0-12.029,4.51-12.029,11.857c0,8.291,5.757,11.898,12.072,11.898
		c8.764,0,12.029-6.229,12.029-11.898C24.756,14.758,22.695,7.198,12.684,7.198L12.684,7.198z M12.771,12.396
		c3.995,0,5.283,3.652,5.283,6.7c0,3.524-1.761,6.619-5.326,6.619c-3.695,0-5.371-3.052-5.371-6.619
		C7.357,15.359,8.904,12.396,12.771,12.396z"/>
</g>
</svg>
