<?xml version="1.0" encoding="UTF-8" standalone="no"?>
<!DOCTYPE svg PUBLIC "-//W3C//DTD SVG 1.1//EN" "http://www.w3.org/Graphics/SVG/1.1/DTD/svg11.dtd">
<svg width="100%" height="100%" viewBox="0 0 251 139" version="1.1" xmlns="http://www.w3.org/2000/svg" xmlns:xlink="http://www.w3.org/1999/xlink" xml:space="preserve" xmlns:serif="http://www.serif.com/" style="fill-rule:evenodd;clip-rule:evenodd;stroke-linejoin:round;stroke-miterlimit:2;">
    <g transform="matrix(1,0,0,1,85.8953,87.2853)">
        <path d="M0,9.676C0.377,9.676 0.774,9.514 1.111,9.17C2.321,7.935 3.035,4.109 3.035,2.429C3.035,0.77 2.479,0 1.627,0C1.25,0 0.853,0.161 0.516,0.506C-0.694,1.74 -1.408,5.567 -1.408,7.247C-1.408,8.907 -0.853,9.676 0,9.676" style="fill:rgb(0,166,81);fill-rule:nonzero;"/>
    </g>
    <g transform="matrix(0.262864,0.964833,0.964833,-0.262864,118.366,87.6346)">
        <path d="M1.457,-1.099C2.317,-1.333 3.053,-1.02 3.251,-0.293C3.475,0.53 2.804,1.535 1.457,1.902C0.636,2.126 -0.141,1.886 -0.361,1.081C-0.616,0.143 0.266,-0.775 1.457,-1.099" style="fill:rgb(0,166,81);fill-rule:nonzero;"/>
    </g>
    <g transform="matrix(1,0,0,1,100.768,52.4619)">
        <path d="M0,18.601C0.959,18.601 1.727,18.154 2.365,17.514C4.73,15.149 6.201,8.757 6.201,4.921C6.201,1.47 5.05,0 3.196,0C2.238,0 1.471,0.448 0.767,1.151C-1.534,3.452 -3.004,9.908 -3.004,13.679C-3.004,17.195 -1.853,18.601 0,18.601" style="fill:rgb(0,166,81);fill-rule:nonzero;"/>
    </g>
    <g transform="matrix(1,0,0,1,184.767,97.5461)">
        <path d="M0,-57.868L-6.073,-50.262C-8.055,-52.499 -10.738,-54.352 -13.551,-54.352C-15.916,-54.352 -17.322,-52.818 -17.322,-50.901C-17.322,-49.239 -16.236,-47.961 -12.4,-44.892C-7.734,-41.121 -4.795,-37.733 -4.795,-32.429C-4.795,-28.593 -6.009,-24.886 -8.949,-21.945C-11.378,-19.516 -14.895,-17.854 -19.56,-17.854C-25.824,-17.854 -30.555,-20.73 -34.198,-24.63L-28.572,-32.683C-25.696,-29.488 -22.628,-27.442 -19.433,-27.442C-17.131,-27.442 -15.469,-28.913 -15.469,-31.021C-15.469,-32.748 -16.556,-33.963 -20.071,-36.902C-24.802,-40.61 -27.934,-44.061 -27.934,-49.495C-27.934,-53.458 -26.527,-57.101 -23.907,-59.722C-21.222,-62.407 -17.643,-63.877 -13.36,-63.877C-7.99,-63.877 -3.58,-61.703 0,-57.868M-17.736,-2.872C-18.053,-1.394 -18.589,-0.221 -19.383,0.589C-20.215,1.46 -21.347,1.864 -22.675,1.864C-25.015,1.864 -26.562,0.508 -26.562,-1.901C-26.562,-2.447 -26.483,-3.034 -26.344,-3.661L-24.479,-12.509L-21.822,-12.509L-23.706,-3.682C-23.864,-2.994 -23.904,-2.528 -23.904,-2.143C-23.904,-1.172 -23.329,-0.626 -22.457,-0.626C-21.922,-0.626 -21.524,-0.807 -21.187,-1.152C-20.811,-1.536 -20.553,-2.143 -20.354,-3.014L-18.331,-12.509L-15.673,-12.509L-17.736,-2.872ZM-90.327,-49.623C-87.642,-52.371 -84.382,-53.842 -80.356,-53.842C-72.302,-53.842 -68.019,-48.472 -68.019,-40.291C-68.019,-34.218 -70.065,-26.292 -74.475,-21.882C-77.16,-19.196 -80.419,-17.663 -84.511,-17.663C-92.5,-17.663 -96.783,-23.032 -96.783,-31.214C-96.783,-37.286 -94.738,-45.212 -90.327,-49.623M-29.067,1.662L-36.326,1.662L-33.312,-12.509L-26.132,-12.509L-26.687,-9.998L-31.189,-9.998L-31.883,-6.719L-27.917,-6.719L-28.412,-4.228L-32.419,-4.228L-33.133,-0.848L-28.492,-0.848L-29.067,1.662ZM-107.23,-10.18C-108.043,-10.18 -108.737,-9.775 -109.669,-8.945L-110.899,-11.031C-109.769,-12.022 -108.657,-12.711 -106.991,-12.711C-104.909,-12.711 -103.282,-11.313 -103.282,-9.228C-103.282,-7.649 -103.997,-6.475 -105.445,-4.896L-109.173,-0.868L-104.651,-0.868L-105.207,1.662L-113.1,1.662L-112.605,-0.605L-107.666,-5.99C-106.476,-7.285 -105.98,-8.096 -105.98,-8.904C-105.98,-9.675 -106.496,-10.18 -107.23,-10.18M-97.106,-12.73C-94.608,-12.73 -93.239,-10.97 -93.239,-7.771C-93.239,-5.281 -94.151,-1.273 -95.917,0.528C-96.809,1.44 -97.801,1.885 -99.011,1.885C-101.51,1.885 -102.878,0.124 -102.878,-3.074C-102.878,-5.565 -101.966,-9.573 -100.201,-11.374C-99.308,-12.286 -98.316,-12.73 -97.106,-12.73M-88.452,-12.609L-86.586,-12.609L-89.622,1.662L-92.279,1.662L-89.879,-9.653L-91.783,-9.148L-91.506,-11.719L-88.452,-12.609ZM-77.655,-12.509L-78.191,-10.017L-82.495,-10.017L-83.229,-7.245C-82.912,-7.326 -82.476,-7.387 -82.119,-7.387C-80.155,-7.387 -78.826,-6.01 -78.826,-3.804C-78.826,-2.103 -79.401,-0.544 -80.472,0.549C-81.325,1.419 -82.297,1.864 -83.725,1.864C-85.352,1.864 -86.681,1.115 -87.593,0.043L-85.927,-1.962C-85.193,-1.131 -84.518,-0.666 -83.646,-0.666C-82.238,-0.666 -81.484,-2.143 -81.484,-3.338C-81.484,-4.451 -82.119,-5.078 -83.13,-5.078C-83.705,-5.078 -84.24,-4.896 -84.658,-4.694L-85.966,-5.706L-84.122,-12.509L-77.655,-12.509ZM-68.488,-14.107L-78.425,3.868L-80.706,3.868L-70.769,-14.107L-68.488,-14.107ZM-65.333,-12.711C-63.132,-12.711 -61.664,-11.354 -61.664,-9.148C-61.664,-7.69 -62.517,-6.152 -63.886,-5.524C-63.171,-4.917 -62.576,-4.047 -62.576,-2.751C-62.576,-0.342 -64.124,1.885 -67.059,1.885C-69.379,1.885 -70.986,0.427 -70.986,-1.901C-70.986,-3.743 -70.034,-5.18 -68.467,-5.949C-69.082,-6.516 -69.518,-7.447 -69.518,-8.479C-69.518,-10.807 -67.832,-12.711 -65.333,-12.711M-54.856,-12.73C-53.548,-12.73 -52.357,-12.224 -51.426,-11.354L-52.874,-9.33C-53.271,-9.735 -54.084,-10.281 -54.956,-10.281C-55.591,-10.281 -56.066,-10.058 -56.484,-9.634C-57.099,-9.006 -57.575,-8.096 -57.932,-6.779C-57.396,-7.205 -56.701,-7.528 -55.829,-7.528C-53.826,-7.528 -52.557,-6.01 -52.557,-3.905C-52.557,-2.164 -53.251,-0.383 -54.202,0.589C-54.937,1.339 -55.929,1.885 -57.237,1.885C-58.348,1.885 -59.32,1.46 -59.896,0.873C-60.628,0.124 -61.025,-1.152 -61.025,-2.67C-61.025,-5.706 -59.896,-9.593 -58.289,-11.232C-57.336,-12.204 -56.306,-12.73 -54.856,-12.73M-42.421,-12.509L-42.916,-10.2L-46.725,-6.434C-45.099,-5.747 -44.245,-4.675 -44.245,-2.872C-44.245,-1.556 -44.682,-0.342 -45.535,0.528C-46.349,1.359 -47.519,1.885 -48.866,1.885C-50.474,1.885 -51.763,1.298 -52.675,0.245L-51.148,-1.718C-50.533,-1.07 -49.819,-0.626 -48.906,-0.626C-47.559,-0.626 -46.884,-1.759 -46.884,-2.792C-46.884,-3.945 -47.875,-4.796 -49.62,-4.796L-49.7,-4.796L-49.561,-6.536L-46.13,-9.998L-50.156,-9.998L-49.601,-12.509L-42.421,-12.509ZM-35.863,-14.107L-33.583,-14.107L-43.52,3.868L-45.801,3.868L-35.863,-14.107ZM-48.52,-63.238L-52.291,-45.915L-43.087,-45.915L-39.315,-63.238L-28.832,-63.238L-38.548,-18.494L-49.031,-18.494L-45.195,-36.136L-54.4,-36.136L-58.235,-18.494L-68.782,-18.494L-59.066,-63.238L-48.52,-63.238ZM63.169,-88.149C58.88,-96.592 53.228,-97.584 40.35,-97.545C30.562,-97.526 -27.44,-97.263 -32.23,-97.263C-37.02,-97.263 -81.554,-99.7 -104.815,-67.526C-105.635,-66.392 -106.631,-64.867 -107.766,-63.027C-103.616,-62.552 -100.736,-61.275 -98.75,-59.339C-96.576,-57.165 -95.49,-54.161 -95.49,-50.517C-95.49,-45.66 -97.023,-41.569 -100.092,-38.501C-101.371,-37.222 -103.096,-36.008 -105.333,-35.049L-101.179,-18.494L-112.301,-18.494L-115.561,-32.748L-116.2,-32.748L-124.631,-32.748C-134.35,-14.442 -144.629,5.773 -149.579,15.57L-181.013,29.06C-181.245,29.161 -181.507,29.292 -181.73,29.425C-184.674,31.171 -185.646,34.973 -183.899,37.917C-182.153,40.861 -178.351,41.832 -175.407,40.086L-146.018,22.656C-126.309,25.952 -68.074,35.464 -52.481,35.44C-21.872,35.393 0.304,12.272 8.866,1.667L-12.934,1.667L-12.58,-0.978L16.356,-35.185C25.936,-46.488 27.688,-51.537 27.688,-57.409C27.688,-64.264 23.042,-68.868 16.125,-68.868C11.135,-68.868 6.914,-66.573 2.842,-61.644L2.317,-61.01L-0.347,-63.496L0.092,-64.055C4.342,-69.485 9.963,-72.476 15.92,-72.476C25.095,-72.476 31.502,-66.322 31.502,-57.511C31.502,-48.921 27.364,-42.514 18.671,-32.23L-6.981,-1.94L11.641,-1.94C12.379,-2.957 12.761,-3.538 12.761,-3.538C12.761,-3.538 51.545,-56.281 57.323,-64.18C64.921,-74.55 67.479,-79.686 63.169,-88.149" style="fill:rgb(0,166,81);fill-rule:nonzero;"/>
    </g>
    <g transform="matrix(1,0,0,1,126.638,92.6896)">
        <path d="M0,3.968C0.258,4.231 0.635,4.373 1.051,4.373C1.488,4.373 1.845,4.211 2.143,3.907C2.737,3.3 3.015,2.247 3.015,1.336C3.015,0.203 2.439,-0.405 1.527,-0.405C1.11,-0.405 0.714,-0.243 0.456,0.021C-0.159,0.628 -0.437,1.761 -0.437,2.49C-0.437,3.26 -0.258,3.704 0,3.968" style="fill:rgb(0,166,81);fill-rule:nonzero;"/>
    </g>
    <g transform="matrix(1,0,0,1,76.366,45.6229)">
        <path d="M0,8.565C1.406,7.222 2.173,4.602 2.173,2.62C2.173,0.959 1.726,-0.065 1.022,-0.767C0.191,-1.598 -0.959,-2.045 -2.94,-2.045L-4.671,-2.045C-6.821,1.756 -9.182,6.051 -11.645,10.61L-5.562,10.61C-2.876,10.61 -1.278,9.843 0,8.565" style="fill:rgb(0,166,81);fill-rule:nonzero;"/>
    </g>
    <g transform="matrix(-0.233071,-0.97246,-0.97246,0.233071,117.238,93.6006)">
        <path d="M-1.646,-2.088C-0.583,-2.342 0.182,-1.934 0.38,-1.105C0.644,-0.006 -0.445,1.01 -1.646,1.297C-2.709,1.552 -3.474,1.144 -3.672,0.315C-3.95,-0.842 -2.788,-1.814 -1.646,-2.088" style="fill:rgb(0,166,81);fill-rule:nonzero;"/>
    </g>
</svg>
