<?xml version="1.0" encoding="UTF-8" standalone="no"?>
<!DOCTYPE svg PUBLIC "-//W3C//DTD SVG 1.1//EN" "http://www.w3.org/Graphics/SVG/1.1/DTD/svg11.dtd">
<svg width="100%" height="100%" viewBox="0 0 251 139" version="1.1" xmlns="http://www.w3.org/2000/svg" xmlns:xlink="http://www.w3.org/1999/xlink" xml:space="preserve" xmlns:serif="http://www.serif.com/" style="fill-rule:evenodd;clip-rule:evenodd;stroke-linejoin:round;stroke-miterlimit:2;">
    <g transform="matrix(1,0,0,1,100.768,52.4619)">
        <path d="M0,18.601C0.959,18.601 1.727,18.154 2.365,17.514C4.73,15.149 6.201,8.757 6.201,4.922C6.201,1.47 5.05,0 3.196,0C2.238,0 1.471,0.447 0.767,1.151C-1.534,3.452 -3.004,9.908 -3.004,13.679C-3.004,17.194 -1.853,18.601 0,18.601" style="fill:rgb(0,166,81);fill-rule:nonzero;"/>
    </g>
    <g transform="matrix(1,0,0,1,184.767,97.5461)">
        <path d="M0,-57.868L-6.073,-50.262C-8.055,-52.499 -10.738,-54.352 -13.551,-54.352C-15.916,-54.352 -17.322,-52.819 -17.322,-50.901C-17.322,-49.239 -16.236,-47.961 -12.4,-44.892C-7.734,-41.121 -4.795,-37.733 -4.795,-32.428C-4.795,-28.593 -6.009,-24.886 -8.949,-21.945C-11.378,-19.516 -14.895,-17.854 -19.56,-17.854C-25.824,-17.854 -30.555,-20.73 -34.198,-24.63L-28.572,-32.683C-25.696,-29.488 -22.628,-27.442 -19.433,-27.442C-17.131,-27.442 -15.469,-28.912 -15.469,-31.022C-15.469,-32.748 -16.556,-33.962 -20.071,-36.902C-24.802,-40.61 -27.934,-44.061 -27.934,-49.495C-27.934,-53.458 -26.527,-57.101 -23.907,-59.722C-21.222,-62.407 -17.643,-63.877 -13.36,-63.877C-7.99,-63.877 -3.58,-61.703 0,-57.868M-20.381,-3.285C-20.735,-1.67 -21.331,-0.389 -22.215,0.495C-23.144,1.446 -24.404,1.889 -25.886,1.889C-28.494,1.889 -30.219,0.407 -30.219,-2.222C-30.219,-2.82 -30.131,-3.462 -29.976,-4.147L-27.898,-13.808L-24.936,-13.808L-27.036,-4.169C-27.212,-3.416 -27.257,-2.909 -27.257,-2.489C-27.257,-1.428 -26.614,-0.831 -25.643,-0.831C-25.045,-0.831 -24.604,-1.029 -24.228,-1.405C-23.809,-1.825 -23.521,-2.489 -23.299,-3.439L-21.045,-13.808L-18.082,-13.808L-20.381,-3.285ZM-31.79,-7.485L-32.343,-4.766L-36.81,-4.766L-37.604,-1.074L-32.431,-1.074L-33.072,1.667L-41.164,1.667L-37.803,-13.808L-29.801,-13.808L-30.418,-11.067L-35.438,-11.067L-36.212,-7.485L-31.79,-7.485ZM-51.79,4.078L-40.714,-15.555L-38.172,-15.555L-49.248,4.078L-51.79,4.078ZM-55.22,1.889C-57.034,1.889 -58.514,1.071 -59.531,-0.1L-57.675,-2.29C-56.856,-1.384 -56.105,-0.875 -55.132,-0.875C-53.562,-0.875 -52.723,-2.489 -52.723,-3.793C-52.723,-5.01 -53.431,-5.693 -54.558,-5.693C-55.198,-5.693 -55.796,-5.496 -56.26,-5.274L-57.719,-6.38L-55.663,-13.808L-48.455,-13.808L-49.052,-11.089L-53.85,-11.089L-54.667,-8.059C-54.314,-8.149 -53.828,-8.214 -53.431,-8.214C-51.241,-8.214 -49.76,-6.711 -49.76,-4.302C-49.76,-2.444 -50.4,-0.741 -51.594,0.452C-52.545,1.403 -53.628,1.889 -55.22,1.889M-61.535,0.495C-62.352,1.315 -63.458,1.91 -64.917,1.91C-66.154,1.91 -67.238,1.446 -67.879,0.805C-68.698,-0.013 -69.139,-1.405 -69.139,-3.063C-69.139,-6.38 -67.879,-10.624 -66.089,-12.416C-65.027,-13.475 -63.878,-14.052 -62.264,-14.052C-60.804,-14.052 -59.479,-13.499 -58.438,-12.549L-60.053,-10.337C-60.494,-10.779 -61.401,-11.377 -62.374,-11.377C-63.081,-11.377 -63.612,-11.134 -64.077,-10.67C-64.763,-9.983 -65.293,-8.988 -65.691,-7.552C-65.094,-8.015 -64.32,-8.369 -63.348,-8.369C-61.114,-8.369 -59.699,-6.711 -59.699,-4.412C-59.699,-2.511 -60.473,-0.565 -61.535,0.495M-80.118,4.078L-69.042,-15.555L-66.5,-15.555L-77.576,4.078L-80.118,4.078ZM-83.259,1.667L-80.584,-10.691L-82.707,-10.139L-82.397,-12.946L-78.991,-13.919L-76.914,-13.919L-80.296,1.667L-83.259,1.667ZM-87.094,1.667L-90.057,1.667L-87.382,-10.691L-89.504,-10.139L-89.195,-12.946L-85.789,-13.919L-83.711,-13.919L-87.094,1.667ZM-94.178,0.431C-95.171,1.424 -96.277,1.91 -97.625,1.91C-100.412,1.91 -101.937,-0.013 -101.937,-3.507C-101.937,-6.224 -100.919,-10.602 -98.952,-12.57C-97.958,-13.566 -96.853,-14.052 -95.502,-14.052C-92.718,-14.052 -91.193,-12.128 -91.193,-8.635C-91.193,-5.915 -92.21,-1.539 -94.178,0.431M-104.592,1.667L-113.391,1.667L-112.838,-0.807L-107.333,-6.689C-106.007,-8.104 -105.454,-8.988 -105.454,-9.874C-105.454,-10.713 -106.03,-11.265 -106.848,-11.265C-107.755,-11.265 -108.529,-10.824 -109.567,-9.917L-110.938,-12.194C-109.677,-13.278 -108.439,-14.028 -106.583,-14.028C-104.261,-14.028 -102.448,-12.504 -102.448,-10.226C-102.448,-8.502 -103.244,-7.221 -104.858,-5.496L-109.015,-1.096L-103.974,-1.096L-104.592,1.667ZM-90.327,-49.622C-87.642,-52.371 -84.382,-53.841 -80.356,-53.841C-72.302,-53.841 -68.019,-48.472 -68.019,-40.29C-68.019,-34.218 -70.065,-26.292 -74.475,-21.882C-77.16,-19.196 -80.419,-17.663 -84.511,-17.663C-92.5,-17.663 -96.783,-23.032 -96.783,-31.214C-96.783,-37.286 -94.738,-45.212 -90.327,-49.622M-48.52,-63.238L-52.291,-45.915L-43.087,-45.915L-39.315,-63.238L-28.832,-63.238L-38.548,-18.493L-49.031,-18.493L-45.195,-36.135L-54.4,-36.135L-58.235,-18.493L-68.782,-18.493L-59.066,-63.238L-48.52,-63.238ZM57.323,-64.18C64.921,-74.549 67.479,-79.686 63.169,-88.149C58.88,-96.592 53.228,-97.584 40.35,-97.545C30.562,-97.526 -27.44,-97.263 -32.23,-97.263C-37.02,-97.263 -81.554,-99.7 -104.815,-67.526C-105.635,-66.392 -106.631,-64.867 -107.766,-63.027C-103.616,-62.552 -100.736,-61.275 -98.75,-59.338C-96.576,-57.165 -95.49,-54.16 -95.49,-50.517C-95.49,-45.66 -97.023,-41.569 -100.092,-38.5C-101.371,-37.222 -103.096,-36.008 -105.333,-35.049L-101.179,-18.493L-112.301,-18.493L-115.561,-32.748L-116.2,-32.748L-124.631,-32.748C-134.35,-14.442 -144.629,5.773 -149.579,15.57L-181.013,29.06C-181.245,29.161 -181.507,29.292 -181.73,29.425C-184.674,31.171 -185.646,34.973 -183.899,37.917C-182.153,40.861 -178.351,41.832 -175.407,40.086L-146.018,22.656C-126.309,25.952 -68.074,35.464 -52.481,35.44C-21.872,35.394 0.304,12.272 8.866,1.667L-12.934,1.667L-12.58,-0.978L16.356,-35.185C25.936,-46.488 27.688,-51.537 27.688,-57.409C27.688,-64.263 23.042,-68.868 16.125,-68.868C11.135,-68.868 6.914,-66.573 2.842,-61.644L2.317,-61.009L-0.347,-63.496L0.092,-64.056C4.342,-69.485 9.963,-72.476 15.92,-72.476C25.095,-72.476 31.502,-66.322 31.502,-57.511C31.502,-48.92 27.364,-42.514 18.671,-32.23L-6.981,-1.94L11.641,-1.94C12.379,-2.956 12.761,-3.538 12.761,-3.538C12.761,-3.538 51.545,-56.281 57.323,-64.18" style="fill:rgb(0,166,81);fill-rule:nonzero;"/>
    </g>
    <g transform="matrix(1,0,0,1,76.366,45.6234)">
        <path d="M0,8.564C1.406,7.222 2.173,4.601 2.173,2.62C2.173,0.958 1.726,-0.065 1.022,-0.768C0.191,-1.599 -0.959,-2.046 -2.94,-2.046L-4.671,-2.046C-6.821,1.756 -9.182,6.051 -11.645,10.61L-5.562,10.61C-2.876,10.61 -1.278,9.843 0,8.564" style="fill:rgb(0,166,81);fill-rule:nonzero;"/>
    </g>
    <g transform="matrix(1,0,0,1,120.557,96.8697)">
        <path d="M0,-5.217C-0.464,-5.217 -0.905,-5.04 -1.193,-4.752C-1.879,-4.09 -2.189,-2.852 -2.189,-2.056C-2.189,-1.215 -1.989,-0.729 -1.701,-0.441C-1.415,-0.155 -0.994,0 -0.529,0C-0.043,0 0.355,-0.176 0.686,-0.508C1.349,-1.17 1.658,-2.321 1.658,-3.316C1.658,-4.553 1.017,-5.217 0,-5.217" style="fill:rgb(0,166,81);fill-rule:nonzero;"/>
    </g>
    <g transform="matrix(1,0,0,1,90.6795,94.1092)">
        <path d="M0,-5.265C0,-7.077 -0.619,-7.916 -1.569,-7.916C-1.991,-7.916 -2.432,-7.74 -2.808,-7.364C-4.156,-6.015 -4.952,-1.837 -4.952,-0.002C-4.952,1.81 -4.334,2.651 -3.382,2.651C-2.963,2.651 -2.522,2.474 -2.146,2.098C-0.797,0.75 0,-3.428 0,-5.265" style="fill:rgb(0,166,81);fill-rule:nonzero;"/>
    </g>
</svg>
